<?xml version="1.0" encoding="UTF-8" standalone="no"?>
<svg width="32" height="32" viewBox="0 0 32 32" xmlns="http://www.w3.org/2000/svg">
  <!-- Browser window frame -->
  <rect x="2" y="4" width="28" height="22" rx="2" ry="2" fill="#f5f5f5" stroke="#333" stroke-width="1"/>
  
  <!-- Browser toolbar -->
  <rect x="2" y="4" width="28" height="6" rx="2" ry="2" fill="#e0e0e0"/>
  
  <!-- Traffic lights -->
  <circle cx="6" cy="7" r="1.5" fill="#ff5f56"/>
  <circle cx="10" cy="7" r="1.5" fill="#ffbd2e"/>
  <circle cx="14" cy="7" r="1.5" fill="#27ca3f"/>
  
  <!-- URL bar -->
  <rect x="18" y="5.5" width="10" height="3" rx="1.5" fill="#fff" stroke="#ccc" stroke-width="0.5"/>
  
  <!-- Page content -->
  <rect x="4" y="12" width="24" height="2" fill="#ddd"/>
  <rect x="4" y="16" width="18" height="1" fill="#ddd"/>
  <rect x="4" y="19" width="20" height="1" fill="#ddd"/>
  <rect x="4" y="22" width="15" height="1" fill="#ddd"/>
  
  <!-- Cloud icon overlay -->
  <g transform="translate(20,18) scale(0.8)">
    <path d="M12 2C6.48 2 2 6.48 2 12s4.48 10 10 10c1.18 0 2.34-.21 3.41-.6.39-.14.59-.55.45-.94-.14-.39-.55-.59-.94-.45C13.95 19.74 12.99 20 12 20c-4.41 0-8-3.59-8-8s3.59-8 8-8 8 3.59 8 8c0 .55.45 1 1 1s1-.45 1-1c0-5.52-4.48-10-10-10z" fill="#007acc"/>
  </g>
</svg> 